<?xml version="1.0" encoding="UTF-8"?>
<!-- Generator: Adobe Illustrator 20.0.0, SVG Export Plug-In . SVG Version: 6.00 Build 0)  -->
<svg xmlns="http://www.w3.org/2000/svg" xmlns:xlink="http://www.w3.org/1999/xlink" version="1.1" id="Layer_1" x="0px" y="0px" viewBox="0 0 194.4 43" style="enable-background:new 0 0 194.4 43;" xml:space="preserve">
<style type="text/css">
	.st0{fill:url(#SVGID_1_);}
	.st1{fill:url(#SVGID_2_);}
	.st2{fill:url(#SVGID_3_);}
	.st3{fill:url(#SVGID_4_);}
	.st4{fill:url(#SVGID_5_);}
	.st5{fill:url(#SVGID_6_);}
	.st6{fill:url(#SVGID_7_);}
	.st7{fill:url(#SVGID_8_);}
	.st8{fill:url(#SVGID_9_);}
	.st9{fill:url(#SVGID_10_);}
	.st10{fill:url(#SVGID_11_);}
	.st11{fill:url(#SVGID_12_);}
	.st12{fill:url(#SVGID_13_);}
	.st13{fill:url(#SVGID_14_);}
	.st14{fill:url(#SVGID_15_);}
	.st15{fill:url(#SVGID_16_);}
	.st16{fill:url(#SVGID_17_);}
	.st17{fill:url(#SVGID_18_);}
	.st18{fill:none;}
</style>
<title>ChogLogo</title>
<g>
	<g>
		<path d="M45.1,13c1.9-0.1,3.8,0.6,5.2,1.9l-1,1.5c-1.2-1-2.6-1.5-4.1-1.6c-2.9-0.1-5.2,2.2-5.3,5.1c0,0.1,0,0.2,0,0.4    c-0.2,3,2.1,5.5,5.1,5.6c0.1,0,0.1,0,0.2,0c1.7,0,3.2-0.7,4.4-1.9l1.1,1.4c-1.4,1.5-3.4,2.3-5.5,2.3c-4,0.1-7.2-3.1-7.3-7.1    c0-0.1,0-0.3,0-0.4c-0.1-3.9,3-7.2,6.9-7.3C44.9,13,45,13,45.1,13z"></path>
		<path d="M52.2,13.3h2v6.3h7.4v-6.3h2v14.3h-2v-6.3h-7.4v6.3h-2V13.3z"></path>
		<path d="M66.1,13.3h2v9.2c0,2,1.6,3.6,3.6,3.6c2,0,3.6-1.6,3.6-3.6v-9.2h2v9.2c0,3.2-2.3,5.3-5.6,5.3s-5.6-2.1-5.6-5.3L66.1,13.3    L66.1,13.3z"></path>
		<path d="M79.8,13.3h4.4c0.9-0.1,1.8,0,2.7,0.3c1.5,0.6,2.5,2.2,2.4,3.9c0.1,1.7-1,3.3-2.6,3.9l0,0c0.2,0.2,0.3,0.4,0.4,0.6l3,5.6    h-2.2l-3-5.7h-3.1v5.7h-2V13.3z M84.7,20.1c1.3,0.1,2.4-0.9,2.5-2.2c0-0.1,0-0.3,0-0.4c0.1-0.9-0.4-1.7-1.1-2.2    c-0.6-0.3-1.3-0.4-2-0.3h-2.3v5.1L84.7,20.1L84.7,20.1z"></path>
		<path d="M97.9,13c1.9-0.1,3.8,0.6,5.2,1.9l-1,1.5c-1.2-1-2.6-1.5-4.1-1.6c-2.9-0.1-5.2,2.2-5.3,5.1c0,0.1,0,0.2,0,0.4    c-0.2,3,2.1,5.5,5.1,5.6c0.1,0,0.2,0,0.2,0c1.7,0,3.2-0.7,4.4-1.9l1.1,1.4c-1.5,1.5-3.5,2.3-5.6,2.3c-4,0.1-7.2-3.1-7.3-7.1    c0-0.1,0-0.3,0-0.4c-0.1-3.9,3-7.2,6.9-7.3C97.7,13,97.8,13,97.9,13z"></path>
		<path d="M105,13.3h2v6.3h7.4v-6.3h2v14.3h-2v-6.3H107v6.3h-2V13.3z"></path>
		<path d="M129.5,13c4-0.1,7.3,3.1,7.3,7.1c0,0.1,0,0.1,0,0.2c0,4.1-3.3,7.3-7.3,7.3c-4.1,0-7.3-3.3-7.3-7.3c0,0,0,0,0,0    c0-4,3.2-7.3,7.1-7.3C129.3,13,129.4,13,129.5,13z M129.5,26c3-0.1,5.3-2.6,5.3-5.5c0,0,0-0.1,0-0.1c0-2.9-2.4-5.3-5.3-5.3    c-2.9,0-5.3,2.4-5.3,5.3c0,0,0,0,0,0C124.1,23.3,126.4,25.8,129.5,26C129.4,26,129.4,26,129.5,26L129.5,26z"></path>
		<path d="M138.5,13.3h7.9V15h-5.9v4.8h5v1.7h-5v6.1h-2L138.5,13.3L138.5,13.3z"></path>
		<path d="M158.1,13c1.9-0.1,3.7,0.5,5.2,1.7l-1,1.5c-1.1-0.9-2.5-1.4-4-1.4c-2.9-0.1-5.3,2.1-5.4,5c0,0.2,0,0.3,0,0.5    c-0.2,2.9,2,5.4,4.9,5.6c0.1,0,0.3,0,0.4,0c1.5,0,3-0.7,4-1.8v-2.1H160v-1.7h4.1v7.2h-1.8v-0.9c0-0.3,0-0.6,0-0.6l0,0    c-1.2,1.1-2.8,1.8-4.4,1.7c-3.9,0-7-3.2-7-7.1c0-0.1,0-0.2,0-0.3c-0.1-4,3.1-7.3,7-7.4C158,13,158.1,13,158.1,13z"></path>
		<path d="M172.8,13c4-0.1,7.3,3.1,7.3,7.1c0,0.1,0,0.1,0,0.2c0,4.1-3.3,7.3-7.3,7.3c-4.1,0-7.3-3.3-7.3-7.3c0,0,0,0,0,0    c0-4,3.2-7.3,7.1-7.3C172.7,13,172.7,13,172.8,13z M172.8,26c3-0.1,5.3-2.6,5.3-5.5c0,0,0-0.1,0-0.1c0-2.9-2.4-5.3-5.3-5.3    c-2.9,0-5.3,2.4-5.3,5.3c0,0,0,0,0,0C167.4,23.3,169.7,25.8,172.8,26C172.8,26,172.8,26,172.8,26L172.8,26z"></path>
		<path d="M182.1,13.3h4.7c4.4,0,7.2,2.6,7.2,7.1s-2.9,7.2-7.2,7.2h-4.7V13.3z M186.7,25.8c3.2,0,5.3-1.9,5.3-5.4s-2.1-5.4-5.3-5.4    h-2.6v10.8H186.7z"></path>
	</g>
	<g>
		
			<linearGradient id="SVGID_1_" gradientUnits="userSpaceOnUse" x1="215.3884" y1="-7747.8076" x2="206.5384" y2="-7709.5273" gradientTransform="matrix(0.9986 0 0 -0.9986 -210.157 -7716.9258)">
			<stop offset="1.000000e-02" style="stop-color:#D1E395"></stop>
			<stop offset="0.34" style="stop-color:#ACD037"></stop>
			<stop offset="0.68" style="stop-color:#80C342"></stop>
			<stop offset="1" style="stop-color:#2B7C3D"></stop>
		</linearGradient>
		<path class="st0" d="M4.9,14.2H3.3c-1,0-1.8-0.8-1.8-1.8v-1.6H3c1,0,1.8,0.8,1.8,1.8V14.2L4.9,14.2z"></path>
		
			<linearGradient id="SVGID_2_" gradientUnits="userSpaceOnUse" x1="223.3002" y1="-7745.9771" x2="214.4501" y2="-7707.6968" gradientTransform="matrix(0.9986 0 0 -0.9986 -210.157 -7716.9258)">
			<stop offset="1.000000e-02" style="stop-color:#D1E395"></stop>
			<stop offset="0.34" style="stop-color:#ACD037"></stop>
			<stop offset="0.68" style="stop-color:#80C342"></stop>
			<stop offset="1" style="stop-color:#2B7C3D"></stop>
		</linearGradient>
		<path class="st1" d="M8.7,6.5v-1c0-0.6,0.5-1.2,1.1-1.2c0,0,0,0,0,0h1.1v1c0,0.6-0.5,1.1-1.1,1.1L8.7,6.5L8.7,6.5z"></path>
		
			<linearGradient id="SVGID_3_" gradientUnits="userSpaceOnUse" x1="238.2741" y1="-7742.5186" x2="229.4241" y2="-7704.2485" gradientTransform="matrix(0.9986 0 0 -0.9986 -210.157 -7716.9258)">
			<stop offset="1.000000e-02" style="stop-color:#D1E395"></stop>
			<stop offset="0.34" style="stop-color:#ACD037"></stop>
			<stop offset="0.68" style="stop-color:#80C342"></stop>
			<stop offset="1" style="stop-color:#2B7C3D"></stop>
		</linearGradient>
		<path class="st2" d="M27.9,10.3h-1.4c-0.9,0-1.6-0.7-1.6-1.6V7.3h1.4c0.9,0,1.6,0.7,1.6,1.6l0,0V10.3z"></path>
		
			<linearGradient id="SVGID_4_" gradientUnits="userSpaceOnUse" x1="239.532" y1="-7742.2266" x2="230.682" y2="-7703.9463" gradientTransform="matrix(0.9986 0 0 -0.9986 -210.157 -7716.9258)">
			<stop offset="1.000000e-02" style="stop-color:#D1E395"></stop>
			<stop offset="0.34" style="stop-color:#ACD037"></stop>
			<stop offset="0.68" style="stop-color:#80C342"></stop>
			<stop offset="1" style="stop-color:#2B7C3D"></stop>
		</linearGradient>
		<path class="st3" d="M31.9,11.5v2.6c0,1.7-1.3,3-3,3c0,0,0,0,0,0h-2.8v-2.6c0-1.7,1.3-3,3-3L31.9,11.5L31.9,11.5z"></path>
		
			<linearGradient id="SVGID_5_" gradientUnits="userSpaceOnUse" x1="233.0784" y1="-7743.7173" x2="224.2284" y2="-7705.4375" gradientTransform="matrix(0.9986 0 0 -0.9986 -210.157 -7716.9258)">
			<stop offset="1.000000e-02" style="stop-color:#D1E395"></stop>
			<stop offset="0.34" style="stop-color:#ACD037"></stop>
			<stop offset="0.68" style="stop-color:#80C342"></stop>
			<stop offset="1" style="stop-color:#2B7C3D"></stop>
		</linearGradient>
		<path class="st4" d="M17.6,9.2V6.7c0-1.6,1.3-2.9,2.9-2.9h0h2.6v2.5c0,1.6-1.3,2.9-2.9,2.9L17.6,9.2L17.6,9.2z"></path>
		
			<linearGradient id="SVGID_6_" gradientUnits="userSpaceOnUse" x1="213.9505" y1="-7748.1387" x2="205.1005" y2="-7709.8589" gradientTransform="matrix(0.9986 0 0 -0.9986 -210.157 -7716.9258)">
			<stop offset="1.000000e-02" style="stop-color:#D1E395"></stop>
			<stop offset="0.34" style="stop-color:#ACD037"></stop>
			<stop offset="0.68" style="stop-color:#80C342"></stop>
			<stop offset="1" style="stop-color:#2B7C3D"></stop>
		</linearGradient>
		<path class="st5" d="M0.2,21.1v-2.5c0-1.6,1.3-2.9,2.9-2.9c0,0,0,0,0,0h2.6v2.5c0,1.6-1.3,2.9-2.9,2.9L0.2,21.1L0.2,21.1z"></path>
		
			<linearGradient id="SVGID_7_" gradientUnits="userSpaceOnUse" x1="227.7829" y1="-7744.9438" x2="218.9328" y2="-7706.6641" gradientTransform="matrix(0.9986 0 0 -0.9986 -210.157 -7716.9258)">
			<stop offset="1.000000e-02" style="stop-color:#D1E395"></stop>
			<stop offset="0.34" style="stop-color:#ACD037"></stop>
			<stop offset="0.68" style="stop-color:#80C342"></stop>
			<stop offset="1" style="stop-color:#2B7C3D"></stop>
		</linearGradient>
		<path class="st6" d="M12.7,3.5h1.7c1.1,0,2,0.9,2,2v1.8h-1.7c-1.1,0-2-0.9-2-2V3.5z"></path>
		
			<linearGradient id="SVGID_8_" gradientUnits="userSpaceOnUse" x1="232.0293" y1="-7743.3296" x2="224.0493" y2="-7708.7896" gradientTransform="matrix(0.9986 0 0 -0.9986 -210.157 -7716.9258)">
			<stop offset="1.000000e-02" style="stop-color:#D1E395"></stop>
			<stop offset="0.34" style="stop-color:#ACD037"></stop>
			<stop offset="0.68" style="stop-color:#80C342"></stop>
			<stop offset="1" style="stop-color:#2B7C3D"></stop>
		</linearGradient>
		<path class="st7" d="M17.5,11.9V17h6c0.7-0.8,1.2-1.9,1.2-3v-3.8h-4.1c-1.2,0-2.3,0.5-3.1,1.3C17.5,11.6,17.5,11.8,17.5,11.9z"></path>
		<g>
			
				<linearGradient id="SVGID_9_" gradientUnits="userSpaceOnUse" x1="222.8465" y1="-7744.458" x2="215.1365" y2="-7711.0981" gradientTransform="matrix(0.9986 0 0 -0.9986 -210.157 -7716.9258)">
				<stop offset="1.000000e-02" style="stop-color:#D1E395"></stop>
				<stop offset="0.34" style="stop-color:#ACD037"></stop>
				<stop offset="0.68" style="stop-color:#80C342"></stop>
				<stop offset="1" style="stop-color:#2B7C3D"></stop>
			</linearGradient>
			<path class="st8" d="M11.2,17H16c0,0,0-0.8,0-3.3c0-1,0.3-2,0.8-2.9c-1-2.1-3.1-3.5-5.4-3.5H5.8v5.2c0,2,1,3.9,2.7,5     C9.4,17.1,10.3,17,11.2,17z"></path>
			
				<linearGradient id="SVGID_10_" gradientUnits="userSpaceOnUse" x1="224.1396" y1="-7746.5576" x2="223.3996" y2="-7743.3574" gradientTransform="matrix(0.9986 0 0 -0.9986 -210.157 -7716.9258)">
				<stop offset="1.000000e-02" style="stop-color:#D1E395"></stop>
				<stop offset="0.34" style="stop-color:#ACD037"></stop>
				<stop offset="0.68" style="stop-color:#80C342"></stop>
				<stop offset="1" style="stop-color:#2B7C3D"></stop>
			</linearGradient>
			<path class="st9" d="M16,18.4h-4.8c0.2,0,0.4,0,0.6,0H16L16,18.4L16,18.4z"></path>
		</g>
	</g>
	<g>
		
			<linearGradient id="SVGID_11_" gradientUnits="userSpaceOnUse" x1="229.1927" y1="-7737.1021" x2="241.4027" y2="-7777.4917" gradientTransform="matrix(0.9986 0 0 -0.9986 -210.157 -7716.9258)">
			<stop offset="0" style="stop-color:#BBDEF5"></stop>
			<stop offset="1" style="stop-color:#115878"></stop>
		</linearGradient>
		<path class="st10" d="M24.3,17.5c-0.9,0.6-1.9,0.9-2.9,0.9h-3.9c0,0,0,5.2,0,7.2c0,0.6-0.1,1.2-0.2,1.8c1.3,2,3.6,3.2,6,3.2h6.6    v-6.1C29.8,21.1,27.5,18.2,24.3,17.5z"></path>
		
			<linearGradient id="SVGID_12_" gradientUnits="userSpaceOnUse" x1="223.2514" y1="-7736.5503" x2="236.6314" y2="-7780.8101" gradientTransform="matrix(0.9986 0 0 -0.9986 -210.157 -7716.9258)">
			<stop offset="0" style="stop-color:#BBDEF5"></stop>
			<stop offset="1" style="stop-color:#115878"></stop>
		</linearGradient>
		<path class="st11" d="M18.2,31h1.7c1.1,0,2,0.9,2,2v1.8h-1.7c-1.1,0-2-0.9-2-2L18.2,31L18.2,31z"></path>
		
			<linearGradient id="SVGID_13_" gradientUnits="userSpaceOnUse" x1="212.0887" y1="-7739.9341" x2="225.4687" y2="-7784.1738" gradientTransform="matrix(0.9986 0 0 -0.9986 -210.157 -7716.9258)">
			<stop offset="0" style="stop-color:#BBDEF5"></stop>
			<stop offset="1" style="stop-color:#115878"></stop>
		</linearGradient>
		<path class="st12" d="M5.5,29.3h1.7c1.1,0,2,0.9,2,2v1.8H7.5c-1.1,0-2-0.9-2-2L5.5,29.3L5.5,29.3z"></path>
		
			<linearGradient id="SVGID_14_" gradientUnits="userSpaceOnUse" x1="227.7596" y1="-7735.1899" x2="241.1396" y2="-7779.4399" gradientTransform="matrix(0.9986 0 0 -0.9986 -210.157 -7716.9258)">
			<stop offset="0" style="stop-color:#BBDEF5"></stop>
			<stop offset="1" style="stop-color:#115878"></stop>
		</linearGradient>
		<path class="st13" d="M23.2,32.8c-0.1,0.8,0.5,1.6,1.3,1.7c0.1,0,0.2,0,0.4,0c0.8-0.1,1.4-0.8,1.4-1.7v-1.5h-1.4    C24,31.3,23.3,32,23.2,32.8z"></path>
		
			<linearGradient id="SVGID_15_" gradientUnits="userSpaceOnUse" x1="218.1393" y1="-7738.103" x2="231.5193" y2="-7782.353" gradientTransform="matrix(0.9986 0 0 -0.9986 -210.157 -7716.9258)">
			<stop offset="0" style="stop-color:#BBDEF5"></stop>
			<stop offset="1" style="stop-color:#115878"></stop>
		</linearGradient>
		<path class="st14" d="M10.5,32.1c-0.2,1.8,1.1,3.4,2.9,3.6c0.3,0,0.5,0,0.8,0c1.8-0.3,3.1-1.8,3.1-3.6v-3.4h-3.1    C12.2,28.7,10.7,30.2,10.5,32.1z"></path>
		
			<linearGradient id="SVGID_16_" gradientUnits="userSpaceOnUse" x1="209.881" y1="-7740.5996" x2="223.261" y2="-7784.8496" gradientTransform="matrix(0.9986 0 0 -0.9986 -210.157 -7716.9258)">
			<stop offset="0" style="stop-color:#BBDEF5"></stop>
			<stop offset="1" style="stop-color:#115878"></stop>
		</linearGradient>
		<path class="st15" d="M2.8,26.9c1.2,0.1,2.3-0.7,2.5-2c0-0.2,0-0.4,0-0.5c-0.2-1.2-1.2-2.1-2.5-2.1H0.6v2.1    C0.6,25.7,1.5,26.8,2.8,26.9z"></path>
		
			<linearGradient id="SVGID_17_" gradientUnits="userSpaceOnUse" x1="236.9212" y1="-7732.4165" x2="250.3012" y2="-7776.6763" gradientTransform="matrix(0.9986 0 0 -0.9986 -210.157 -7716.9258)">
			<stop offset="0" style="stop-color:#BBDEF5"></stop>
			<stop offset="1" style="stop-color:#115878"></stop>
		</linearGradient>
		<path class="st16" d="M30.8,21c0.8,0.1,1.5-0.5,1.6-1.2c0-0.1,0-0.2,0-0.4c-0.1-0.8-0.8-1.3-1.6-1.3h-1.5v1.4    C29.4,20.3,30,21,30.8,21z"></path>
		
			<linearGradient id="SVGID_18_" gradientUnits="userSpaceOnUse" x1="217.6769" y1="-7738.5845" x2="230.8969" y2="-7782.3047" gradientTransform="matrix(0.9986 0 0 -0.9986 -210.157 -7716.9258)">
			<stop offset="0" style="stop-color:#BBDEF5"></stop>
			<stop offset="1" style="stop-color:#115878"></stop>
		</linearGradient>
		<path class="st17" d="M16,18.4h-5.2c-0.6,0-1.1,0-1.7-0.1c-1.9,1-3.1,3-3.1,5.2v5.1h5.4c1.8,0,3.4-0.8,4.6-2.2V18.4L16,18.4z"></path>
	</g>
	<g>
		<path d="M115.1,33.1h1l1.5,3.4c0.1,0.3,0.3,0.8,0.3,0.8l0,0c0,0,0.2-0.5,0.3-0.8l1.5-3.4h0.9l0.5,6.3h-0.9l-0.3-4    c0-0.4,0-0.9,0-0.9l0,0c0,0-0.2,0.6-0.3,0.9l-1.3,2.9h-0.8l-1.3-2.9c-0.1-0.3-0.3-1-0.3-1l0,0c0,0,0,0.6,0,1l-0.3,4h-0.9    L115.1,33.1z"></path>
		<path d="M124.8,33.1h0.9v6.3h-0.9V33.1z"></path>
		<path d="M129.7,33.1h0.9l2.8,4.1c0.2,0.3,0.5,0.9,0.5,0.9l0,0c0,0-0.1-0.6-0.1-0.9v-4.1h0.9v6.3h-0.9l-2.8-4.1    c-0.2-0.3-0.5-0.9-0.5-0.9l0,0c0,0,0.1,0.6,0.1,0.9v4.1h-0.9L129.7,33.1L129.7,33.1z"></path>
		<path d="M138.7,33.1h0.9v6.3h-0.9V33.1z"></path>
		<path d="M143.6,38c0.4,0.4,1,0.7,1.6,0.7c0.5,0.1,1-0.3,1.1-0.9c0,0,0,0,0,0c0-1.4-3.1-1.1-3.1-3c0.1-1,0.9-1.8,2-1.8c0,0,0,0,0,0    c0.7,0,1.3,0.2,1.8,0.6l-0.4,0.7c-0.4-0.3-0.9-0.5-1.4-0.5c-0.5-0.1-1.1,0.3-1.1,0.8c0,0,0,0.1,0,0.1c0,1.3,3.1,1,3.1,3    c0,1-0.9,1.8-1.9,1.8c0,0-0.1,0-0.1,0c-0.8,0-1.5-0.3-2.1-0.8L143.6,38z"></path>
		<path d="M152,33.8h-2.2v-0.8h5.2v0.8h-2.2v5.6H152V33.8z"></path>
		<path d="M158.3,33.1h1.9c0.4,0,0.8,0,1.2,0.1c0.9,0.5,1.3,1.6,0.9,2.5c-0.2,0.4-0.5,0.7-0.9,0.9l0,0c0.1,0.1,0.1,0.2,0.2,0.3    l1.3,2.5h-1l-1.3-2.5h-1.4v2.5h-0.9L158.3,33.1L158.3,33.1z M160.5,36.1c0.6,0,1.1-0.4,1.1-1c0-0.1,0-0.1,0-0.2    c0.1-0.4-0.1-0.8-0.5-1c-0.3-0.1-0.6-0.2-0.9-0.1h-1V36L160.5,36.1L160.5,36.1z"></path>
		<path d="M166.3,33.1h0.9v6.3h-0.9V33.1z"></path>
		<path d="M171.1,33.1h3.7v0.8H172v2h2.3v0.8H172v2h3v0.8h-3.8L171.1,33.1L171.1,33.1z"></path>
		<path d="M178.5,38c0.4,0.4,1,0.7,1.6,0.7c0.5,0.1,1-0.3,1.1-0.9c0,0,0,0,0,0c0-1.4-3.1-1.1-3.1-3c0.1-1,0.9-1.8,2-1.8c0,0,0,0,0,0    c0.7,0,1.3,0.2,1.8,0.6l-0.4,0.7c-0.4-0.3-0.9-0.5-1.4-0.5c-0.5-0.1-1.1,0.3-1.1,0.8c0,0,0,0.1,0,0.1c0,1.3,3.1,1,3.1,3    c0,1-0.9,1.8-1.9,1.8c0,0-0.1,0-0.1,0c-0.8,0-1.5-0.3-2.1-0.8L178.5,38z"></path>
	</g>
</g>
<rect x="0" y="0" class="st18" width="194.4" height="43"></rect>
</svg>
